<?xml version="1.0" encoding="UTF-8"?>
<svg version="1.1" xmlns="http://www.w3.org/2000/svg" width="243" height="252">
<path d="M0 0 C1.37908794 -0.00599357 2.75817254 -0.01280101 4.13725281 -0.02035522 C7.86482394 -0.03794117 11.5923031 -0.04270754 15.31991172 -0.0439868 C17.65515125 -0.04541351 19.99036779 -0.04969299 22.32560158 -0.05498123 C30.49084569 -0.07345917 38.65602473 -0.08165492 46.82128906 -0.08007812 C54.40234141 -0.07887832 61.98310833 -0.09995471 69.56408852 -0.13156545 C76.09689649 -0.15782342 82.62961181 -0.16844141 89.16247207 -0.16716731 C93.05346692 -0.16666033 96.94420803 -0.17219525 100.83514977 -0.19352341 C104.50021805 -0.21306654 108.16479477 -0.21292236 111.82988167 -0.19849014 C113.7942255 -0.19544382 115.75857025 -0.2119665 117.72283936 -0.22937012 C134.92626576 -0.10921623 149.31274048 6.39464179 161.52856445 18.35693359 C173.73017369 30.98232637 177.56551961 46.02467905 177.5534668 63.02758789 C177.55946037 64.40667583 177.56626781 65.78576043 177.57382202 67.1648407 C177.59140797 70.89241183 177.59617434 74.61989099 177.59745359 78.34749961 C177.59888031 80.68273914 177.60315978 83.01795568 177.60844803 85.35318947 C177.62692597 93.51843358 177.63512172 101.68361262 177.63354492 109.84887695 C177.63234511 117.4299293 177.65342151 125.01069622 177.68503225 132.59167641 C177.71129022 139.12448438 177.7219082 145.6571997 177.7206341 152.19005996 C177.72012713 156.08105481 177.72566205 159.97179592 177.7469902 163.86273766 C177.76653334 167.52780594 177.76638916 171.19238266 177.75195694 174.85746956 C177.74891062 176.82181339 177.7654333 178.78615815 177.78283691 180.75042725 C177.66268302 197.95385365 171.158825 212.34032837 159.1965332 224.55615234 C146.57114043 236.75776158 131.52878775 240.5931075 114.52587891 240.58105469 C113.14679097 240.58704826 111.76770637 240.5938557 110.3886261 240.60140991 C106.66105496 240.61899586 102.9335758 240.62376223 99.20596719 240.62504148 C96.87072766 240.6264682 94.53551112 240.63074767 92.20027733 240.63603592 C84.03503321 240.65451386 75.86985417 240.66270961 67.70458984 240.66113281 C60.1235375 240.659933 52.54277058 240.6810094 44.96179038 240.71262014 C38.42898241 240.73887811 31.8962671 240.74949609 25.36340684 240.74822199 C21.47241198 240.74771502 17.58167088 240.75324994 13.69072914 240.77457809 C10.02566086 240.79412123 6.36108414 240.79397705 2.69599724 240.77954483 C0.7316534 240.77649851 -1.23269135 240.79302119 -3.19696045 240.8104248 C-20.40038685 240.69027091 -34.78686157 234.18641289 -47.00268555 222.22412109 C-59.20429478 209.59872832 -63.03964071 194.55637564 -63.02758789 177.5534668 C-63.03358146 176.17437886 -63.0403889 174.79529426 -63.04794312 173.41621399 C-63.06552907 169.68864286 -63.07029543 165.96116369 -63.07157469 162.23355508 C-63.0730014 159.89831555 -63.07728088 157.56309901 -63.08256912 155.22786522 C-63.10104706 147.0626211 -63.10924281 138.89744206 -63.10766602 130.73217773 C-63.10646621 123.15112539 -63.1275426 115.57035847 -63.15915334 107.98937827 C-63.18541131 101.4565703 -63.1960293 94.92385499 -63.1947552 88.39099473 C-63.19424822 84.49999987 -63.19978314 80.60925877 -63.2211113 76.71831703 C-63.24065443 73.05324875 -63.24051026 69.38867203 -63.22607803 65.72358513 C-63.22303171 63.75924129 -63.23955439 61.79489654 -63.25695801 59.83062744 C-63.13680412 42.62720104 -56.6329461 28.24072632 -44.6706543 16.02490234 C-32.04526152 3.82329311 -17.00290884 -0.01205282 0 0 Z M52.26293945 61.29052734 C51.71619147 63.89074857 51.71619147 63.89074857 51.87231445 66.71240234 C51.88520508 67.73720703 51.8980957 68.76201172 51.91137695 69.81787109 C51.96165039 71.41308594 51.96165039 71.41308594 52.01293945 73.04052734 C52.03098633 74.11947266 52.0490332 75.19841797 52.06762695 76.31005859 C52.1147253 78.97111522 52.18048345 81.63036989 52.26293945 84.29052734 C51.17754883 84.43232422 50.0921582 84.57412109 48.97387695 84.72021484 C37.81594855 86.43501226 29.63929999 93.85720927 22.98950195 102.62646484 C16.90620143 112.01291498 15.28081459 122.9438095 16.88793945 133.91552734 C19.34024987 145.08716371 25.57245976 154.30155112 34.7512207 161.14599609 C37.20206854 162.68968719 39.65667108 164.02902684 42.26293945 165.29052734 C42.94614258 165.62955078 43.6293457 165.96857422 44.33325195 166.31787109 C53.11258977 169.93976521 64.52478598 169.60388503 73.38793945 166.54052734 C77.34480844 164.85147581 80.84657569 162.9304448 84.26293945 160.29052734 C84.8249707 159.87158203 85.38700195 159.45263672 85.96606445 159.02099609 C93.84254231 152.8054277 99.14483229 144.09569759 101.26293945 134.29052734 C102.70350388 121.80151388 101.10009285 110.50257571 93.26293945 100.29052734 C92.56168945 99.32115234 91.86043945 98.35177734 91.13793945 97.35302734 C85.68569009 90.97808962 78.23715203 86.62779655 70.26293945 84.29052734 C68.94293945 84.29052734 67.62293945 84.29052734 66.26293945 84.29052734 C66.28388672 83.61473633 66.30483398 82.93894531 66.32641602 82.24267578 C66.40965588 79.17544481 66.46162411 76.10845153 66.51293945 73.04052734 C66.54645508 71.97705078 66.5799707 70.91357422 66.61450195 69.81787109 C66.62739258 68.79306641 66.6402832 67.76826172 66.65356445 66.71240234 C66.67451172 65.76977539 66.69545898 64.82714844 66.71704102 63.85595703 C66.12554743 60.51433629 64.90243174 59.35564705 62.26293945 57.29052734 C57.2989096 56.46318903 55.34777223 57.41521642 52.26293945 61.29052734 Z " fill="#5528C5" transform="translate(63.737060546875,4.70947265625)"/>
<path d="M0 0 C6.57370196 4.6899528 12.28532734 9.88228398 14 18 C15.21412253 28.71492602 13.9860585 36.44472512 7.4609375 45.0234375 C2.36204422 50.75063043 -3.69351996 53.5493814 -11.28515625 54.34375 C-21.35553621 54.62123464 -28.62374996 51.84937503 -36 45 C-41.58891018 38.31024387 -43.34975825 31.03062439 -42.875 22.4375 C-41.84594766 14.13570698 -38.39745131 8.48219901 -32.33203125 2.765625 C-23.12476533 -4.2053703 -10.22873897 -5.47037823 0 0 Z " fill="#5427C2" transform="translate(137,105)"/>
<path d="M0 0 C0.33 0 0.66 0 1 0 C1.66 43.23 2.32 86.46 3 131 C4.32 131.33 5.64 131.66 7 132 C6.814375 132.886875 6.62875 133.77375 6.4375 134.6875 C6.01285013 137.90270617 6.26390209 139.89203107 7 143 C7 144.32 7 145.64 7 147 C7.94875 146.835 8.8975 146.67 9.875 146.5 C13 146 13 146 15 146 C14.67 147.65 14.34 149.3 14 151 C13.34 151 12.68 151 12 151 C12 151.66 12 152.32 12 153 C12.66 153.33 13.32 153.66 14 154 C14.40729228 156.32156597 14.74438677 158.6568787 15 161 C15.99 161 16.98 161 18 161 C18.99 161.33 19.98 161.66 21 162 C21 162.66 21 163.32 21 164 C21.66 164.33 22.32 164.66 23 165 C23.144375 165.66 23.28875 166.32 23.4375 167 C23.623125 167.66 23.80875 168.32 24 169 C24.99 169.33 25.98 169.66 27 170 C27.66 170.66 28.32 171.32 29 172 C30.4540625 171.9690625 30.4540625 171.9690625 31.9375 171.9375 C35 172 35 172 36.875 173.375 C38 175 38 175 38 177 C41.96 178.32 45.92 179.64 50 181 C50.33 180.01 50.66 179.02 51 178 C51.54280735 178.3250395 52.0856147 178.650079 52.64487076 178.98496819 C55.4934103 180.21265379 57.58239386 180.24618609 60.68206787 180.24050903 C61.84030563 180.24325836 62.9985434 180.24600769 64.19187927 180.24884033 C65.45854935 180.24164978 66.72521942 180.23445923 68.03027344 180.22705078 C69.38059989 180.2264865 70.73092696 180.22680356 72.08125305 180.22793579 C75.74417631 180.22850964 79.40696859 180.21675011 83.06986141 180.20278788 C86.89888279 180.19028593 90.72790716 180.18911044 94.5569458 180.18673706 C101.80649005 180.18052072 109.05597399 180.16410781 116.30549169 180.14403808 C124.55934879 180.12168389 132.81320877 180.11068686 141.0670886 180.10064721 C158.04476062 180.07974172 175.02237393 180.04456273 192 180 C192.33 179.34 192.66 178.68 193 178 C194.98 178 196.96 178 199 178 C199.99 175.03 199.99 175.03 201 172 C202.32 172.33 203.64 172.66 205 173 C205 172.34 205 171.68 205 171 C205.71027344 170.87882813 206.42054688 170.75765625 207.15234375 170.6328125 C208.07144531 170.46523437 208.99054688 170.29765625 209.9375 170.125 C210.85402344 169.96257812 211.77054688 169.80015625 212.71484375 169.6328125 C213.46894531 169.42398438 214.22304687 169.21515625 215 169 C215.33 168.34 215.66 167.68 216 167 C216.98731742 165.65724831 217.98594743 164.32267727 219 163 C219.99 163.33 220.98 163.66 222 164 C222.28875 163.2575 222.5775 162.515 222.875 161.75 C223.82302644 159.43260203 224.84845911 157.22082885 226 155 C226.99 155.33 227.98 155.66 229 156 C229.66 153.03 230.32 150.06 231 147 C231.66 147 232.32 147 233 147 C233.33 146.01 233.66 145.02 234 144 C233.34 144 232.68 144 232 144 C233 141 233 141 235.02769089 138.66802692 C237.31872726 135.56884399 237.51417579 134.1145357 237.5569458 130.31156921 C237.57927277 129.17719925 237.60159973 128.04282928 237.62460327 126.87408447 C237.62892365 125.63906189 237.63324402 124.40403931 237.63769531 123.1315918 C237.65778656 121.82388321 237.67787781 120.51617462 237.69857788 119.1688385 C237.75310638 115.59078589 237.78345414 112.01289041 237.80943394 108.43453193 C237.84072729 104.69207755 237.89429761 100.94994336 237.94549561 97.2077179 C238.03901765 90.12481153 238.11253107 83.04184475 238.17884135 75.95863706 C238.25532255 67.89318053 238.35413236 59.82804579 238.45480967 51.76286066 C238.66136936 35.17547165 238.83991517 18.58790401 239 2 C239.33 2 239.66 2 240 2 C240.09371511 18.98610394 240.16411165 35.97212643 240.20724869 52.95843029 C240.22781622 60.8466427 240.25582467 68.73469387 240.30175781 76.62280273 C240.34180463 83.5033695 240.36747496 90.3838194 240.37635398 97.26449949 C240.38153879 100.90302945 240.39360121 104.54122528 240.42292023 108.17964745 C240.45549397 112.2555723 240.45594808 116.33092758 240.45410156 120.40698242 C240.46848267 121.59454132 240.48286377 122.78210022 240.49768066 124.00564575 C240.41513357 140.94753045 233.68243994 155.26777047 221.93359375 167.265625 C209.30820098 179.46723423 194.26584829 183.30258016 177.26293945 183.29052734 C175.88385152 183.29652092 174.50476692 183.30332835 173.12568665 183.31088257 C169.39811551 183.32846852 165.67063635 183.33323489 161.94302773 183.33451414 C159.6077882 183.33594086 157.27257167 183.34022033 154.93733788 183.34550858 C146.77209376 183.36398652 138.60691472 183.37218226 130.44165039 183.37060547 C122.86059805 183.36940566 115.27983112 183.39048206 107.69885093 183.4220928 C101.16604296 183.44835076 94.63332764 183.45896875 88.10046738 183.45769465 C84.20947253 183.45718767 80.31873142 183.4627226 76.42778969 183.48405075 C72.76272141 183.50359388 69.09814468 183.50344971 65.43305779 183.48901749 C63.46871395 183.48597117 61.5043692 183.50249385 59.5401001 183.51989746 C42.3366737 183.39974357 27.95019897 176.89588555 15.734375 164.93359375 C3.7144988 152.49624592 -0.32563539 137.5756662 -0.22705078 120.79101562 C-0.22734283 119.48286896 -0.22763489 118.17472229 -0.22793579 116.82693481 C-0.22850671 113.26135071 -0.21679491 109.69590274 -0.20278788 106.13035011 C-0.1902368 102.3961113 -0.18910658 98.66186895 -0.18673706 94.9276123 C-0.1805351 87.86590494 -0.16414177 80.80425992 -0.14403808 73.74257994 C-0.12163898 65.69902541 -0.11067559 57.65546782 -0.10064721 49.61188984 C-0.07977433 33.0745568 -0.04462348 16.53728637 0 0 Z " fill="#3B217D" transform="translate(1,62)"/>
<path d="M0 0 C1.37908794 -0.00599357 2.75817254 -0.01280101 4.13725281 -0.02035522 C7.86482394 -0.03794117 11.5923031 -0.04270754 15.31991172 -0.0439868 C17.65515125 -0.04541351 19.99036779 -0.04969299 22.32560158 -0.05498123 C30.49084569 -0.07345917 38.65602473 -0.08165492 46.82128906 -0.08007812 C54.40234141 -0.07887832 61.98310833 -0.09995471 69.56408852 -0.13156545 C76.09689649 -0.15782342 82.62961181 -0.16844141 89.16247207 -0.16716731 C93.05346692 -0.16666033 96.94420803 -0.17219525 100.83514977 -0.19352341 C104.50021805 -0.21306654 108.16479477 -0.21292236 111.82988167 -0.19849014 C113.7942255 -0.19544382 115.75857025 -0.2119665 117.72283936 -0.22937012 C130.53175994 -0.13990877 144.23520508 3.20622329 154.09106445 11.90380859 C155.51293945 13.47802734 155.51293945 13.47802734 157.26293945 16.29052734 C156.93293945 17.28052734 156.60293945 18.27052734 156.26293945 19.29052734 C154.94293945 18.96052734 153.62293945 18.63052734 152.26293945 18.29052734 C152.26293945 16.64052734 152.26293945 14.99052734 152.26293945 13.29052734 C151.60293945 13.29052734 150.94293945 13.29052734 150.26293945 13.29052734 C150.26293945 12.63052734 150.26293945 11.97052734 150.26293945 11.29052734 C146.82778944 10.66595461 143.77229131 10.29052734 140.26293945 10.29052734 C140.26293945 9.63052734 140.26293945 8.97052734 140.26293945 8.29052734 C138.94293945 8.95052734 137.62293945 9.61052734 136.26293945 10.29052734 C136.26293945 8.31052734 136.26293945 6.33052734 136.26293945 4.29052734 C132.12616321 3.51167191 128.21493594 3.16178795 124.00782776 3.15008545 C122.77281525 3.14437531 121.53780273 3.13866516 120.2653656 3.13278198 C118.90982066 3.13153689 117.5542756 3.13041174 116.19873047 3.12939453 C114.76094436 3.12476162 113.32315946 3.11973632 111.88537598 3.11434937 C107.99075782 3.10127266 104.09615687 3.09479018 100.2015202 3.09033871 C97.76617469 3.08740153 95.33083381 3.08329562 92.89549065 3.07883453 C85.26928943 3.06517473 77.64309889 3.05549953 70.01688629 3.05163264 C61.22492007 3.04714947 52.43310912 3.02958322 43.64119011 3.00063205 C36.83591729 2.97900296 30.03068814 2.96892778 23.22538131 2.96759152 C19.16467967 2.96654477 15.10412429 2.96066416 11.04345894 2.94277191 C7.22421002 2.92626896 3.40521704 2.92414639 -0.41405487 2.93291092 C-1.81243896 2.93367999 -3.21083694 2.92935569 -4.60918617 2.91945267 C-15.7690438 2.84507745 -21.88535253 4.56322925 -30.73706055 11.29052734 C-32.64810693 13.20157373 -33.56044396 15.88613692 -34.73706055 18.29052734 C-36.05706055 18.29052734 -37.37706055 18.29052734 -38.73706055 18.29052734 C-38.73706055 17.63052734 -38.73706055 16.97052734 -38.73706055 16.29052734 C-39.39706055 16.29052734 -40.05706055 16.29052734 -40.73706055 16.29052734 C-40.73706055 16.95052734 -40.73706055 17.61052734 -40.73706055 18.29052734 C-41.72706055 18.29052734 -42.71706055 18.29052734 -43.73706055 18.29052734 C-43.73706055 19.94052734 -43.73706055 21.59052734 -43.73706055 23.29052734 C-45.05706055 23.62052734 -46.37706055 23.95052734 -47.73706055 24.29052734 C-48.74817147 27.33965963 -48.74817147 27.33965963 -47.73706055 30.29052734 C-49.71706055 32.76552734 -49.71706055 32.76552734 -51.73706055 35.29052734 C-52.39706055 34.96052734 -53.05706055 34.63052734 -53.73706055 34.29052734 C-54.86931801 36.55504227 -55.04267137 38.27872209 -55.29956055 40.79052734 C-55.38334961 41.58458984 -55.46713867 42.37865234 -55.5534668 43.19677734 C-55.76739472 45.63646602 -55.69072678 47.71679797 -55.42456055 50.16552734 C-55.73706055 53.29052734 -55.73706055 53.29052734 -58.23706055 55.66552734 C-59.06206055 56.20177734 -59.88706055 56.73802734 -60.73706055 57.29052734 C-61.65917741 42.1609803 -57.21048217 30.5100096 -47.48706055 19.10302734 C-34.32131693 5.05663198 -18.78988476 -0.01331955 0 0 Z " fill="#623BCB" transform="translate(63.737060546875,4.70947265625)"/>
<path d="M0 0 C0.33 0 0.66 0 1 0 C1.66 43.23 2.32 86.46 3 131 C4.32 131.33 5.64 131.66 7 132 C6.814375 132.886875 6.62875 133.77375 6.4375 134.6875 C6.01285013 137.90270617 6.26390209 139.89203107 7 143 C7 144.32 7 145.64 7 147 C7.94875 146.835 8.8975 146.67 9.875 146.5 C13 146 13 146 15 146 C14.67 147.65 14.34 149.3 14 151 C13.34 151 12.68 151 12 151 C12 151.66 12 152.32 12 153 C12.66 153.33 13.32 153.66 14 154 C14.40729228 156.32156597 14.74438677 158.6568787 15 161 C15.99 161 16.98 161 18 161 C18.99 161.33 19.98 161.66 21 162 C21 162.66 21 163.32 21 164 C21.66 164.33 22.32 164.66 23 165 C22.34 165.99 21.68 166.98 21 168 C10.08134439 162.05813196 4.5339395 150.05882283 0.93753052 138.62097168 C-0.48967453 132.73915058 -0.26239807 126.80911507 -0.22705078 120.79101562 C-0.22734283 119.48286896 -0.22763489 118.17472229 -0.22793579 116.82693481 C-0.22850671 113.26135071 -0.21679491 109.69590274 -0.20278788 106.13035011 C-0.1902368 102.3961113 -0.18910658 98.66186895 -0.18673706 94.9276123 C-0.1805351 87.86590494 -0.16414177 80.80425992 -0.14403808 73.74257994 C-0.12163898 65.69902541 -0.11067559 57.65546782 -0.10064721 49.61188984 C-0.07977433 33.0745568 -0.04462348 16.53728637 0 0 Z " fill="#44278E" transform="translate(1,62)"/>
<path d="M0 0 C0.33 0 0.66 0 1 0 C1.09371511 16.98610394 1.16411165 33.97212643 1.20724869 50.95843029 C1.22781622 58.8466427 1.25582467 66.73469387 1.30175781 74.62280273 C1.34180463 81.5033695 1.36747496 88.3838194 1.37635398 95.26449949 C1.38153879 98.90302945 1.39360121 102.54122528 1.42292023 106.17964745 C1.45549397 110.2555723 1.45594808 114.33092758 1.45410156 118.40698242 C1.47567322 120.18832077 1.47567322 120.18832077 1.49768066 122.00564575 C1.40464965 141.09923966 -7.0856041 154.83283123 -20 168 C-21.32 167.67 -22.64 167.34 -24 167 C-22.89131683 164.78263366 -21.50559539 162.96382007 -20 161 C-19.01 161.33 -18.02 161.66 -17 162 C-16.566875 160.88625 -16.566875 160.88625 -16.125 159.75 C-15.17697356 157.43260203 -14.15154089 155.22082885 -13 153 C-12.01 153.33 -11.02 153.66 -10 154 C-9.34 151.03 -8.68 148.06 -8 145 C-7.34 145 -6.68 145 -6 145 C-5.67 144.01 -5.34 143.02 -5 142 C-5.66 142 -6.32 142 -7 142 C-6 139 -6 139 -3.97230911 136.66802692 C-1.68127274 133.56884399 -1.48582421 132.1145357 -1.4430542 128.31156921 C-1.42072723 127.17719925 -1.39840027 126.04282928 -1.37539673 124.87408447 C-1.37107635 123.63906189 -1.36675598 122.40403931 -1.36230469 121.1315918 C-1.34221344 119.82388321 -1.32212219 118.51617462 -1.30142212 117.1688385 C-1.24689362 113.59078589 -1.21654586 110.01289041 -1.19056606 106.43453193 C-1.15927271 102.69207755 -1.10570239 98.94994336 -1.05450439 95.2077179 C-0.96098235 88.12481153 -0.88746893 81.04184475 -0.82115865 73.95863706 C-0.74467745 65.89318053 -0.64586764 57.82804579 -0.54519033 49.76286066 C-0.33863064 33.17547165 -0.16008483 16.58790401 0 0 Z " fill="#472A95" transform="translate(240,64)"/>
<path d="M0 0 C18.58524422 -0.0936164 37.17044031 -0.16406377 55.75587177 -0.20724869 C64.38623774 -0.22783694 73.01645684 -0.25588567 81.64672852 -0.30175781 C89.1725804 -0.34174047 96.69832586 -0.36745996 104.22428101 -0.37635398 C108.20590692 -0.38154948 112.18722851 -0.39368185 116.16875648 -0.42292023 C119.92395243 -0.45027053 123.67872155 -0.45840592 127.43400764 -0.45243073 C129.45371093 -0.45403885 131.47336878 -0.47545822 133.49295044 -0.49768066 C146.27191624 -0.44040199 158.47049375 3.47049375 167.6875 12.6875 C168.120625 13.450625 168.55375 14.21375 169 15 C168.67 15.99 168.34 16.98 168 18 C166.68 17.67 165.36 17.34 164 17 C164 15.35 164 13.7 164 12 C163.34 12 162.68 12 162 12 C162 11.34 162 10.68 162 10 C158.56484998 9.37542727 155.50935186 9 152 9 C152 8.34 152 7.68 152 7 C150.68 7.66 149.36 8.32 148 9 C148 7.02 148 5.04 148 3 C143.9146919 2.23518915 140.04163323 1.86751454 135.88760376 1.84178162 C134.6845459 1.8319928 133.48148804 1.82220398 132.24197388 1.81211853 C130.93574066 1.80636307 129.62950745 1.8006076 128.28369141 1.79467773 C126.88380653 1.78508976 125.48392449 1.77507915 124.08404541 1.76467896 C120.29528357 1.73772334 116.5065094 1.71666341 112.71770525 1.69667697 C108.75386864 1.67475955 104.79006965 1.6473991 100.82626343 1.62062073 C93.32538199 1.57077149 85.82447958 1.52580394 78.32355726 1.48259836 C69.78183876 1.43315946 61.24015802 1.37826607 52.69847608 1.32291877 C35.13235232 1.20921804 17.56619346 1.10235322 0 1 C0 0.67 0 0.34 0 0 Z " fill="#6539E1" transform="translate(52,6)"/>
<path d="M0 0 C1.18370057 1.77555086 2.33510758 3.57460274 3.41015625 5.41796875 C10.08588542 16.6073115 18.20636773 23.82233663 30.87084961 27.55078125 C33.15983992 28.03372382 35.20896437 28.11345294 37.546875 28.09765625 C38.39121094 28.09443359 39.23554687 28.09121094 40.10546875 28.08789062 C40.97816406 28.07951172 41.85085937 28.07113281 42.75 28.0625 C43.63816406 28.05798828 44.52632812 28.05347656 45.44140625 28.04882812 C47.62767329 28.037074 49.81380179 28.02064249 52 28 C51.505 29.485 51.505 29.485 51 31 C48.39619004 31.19476139 45.79224467 31.38108614 43.1875 31.5625 C42.44951172 31.61857422 41.71152344 31.67464844 40.95117188 31.73242188 C37.63211484 31.95769724 35.18767436 32.06255812 32 31 C31.21625 31.185625 30.4325 31.37125 29.625 31.5625 C26.45352412 32.09107931 24.84890119 31.38375201 22 30 C22 29.01 22 28.02 22 27 C20.35 27.66 18.7 28.32 17 29 C17 27 17 25 17 23 C13.98968256 22.06576355 13.13349732 21.95550089 10 23 C9.34 21.68 8.68 20.36 8 19 C7.67 19.66 7.34 20.32 7 21 C6 18 6 18 6 15 C4.68662604 13.9739266 3.35335895 12.97272675 2 12 C2 11.34 2 10.68 2 10 C1.01 9.67 0.02 9.34 -1 9 C-1 5.72724974 -0.70074844 3.153368 0 0 Z " fill="#48299B" transform="translate(82,144)"/>
<path d="M0 0 C1.18548839 3.58261565 0.88517653 6.58766787 0.5 10.3125 C-0.20662133 18.99523053 0.54944495 23.94515709 5.4296875 31.1796875 C6.96415245 33.2723691 6.96415245 33.2723691 10 34 C10.639375 34.66 11.27875 35.32 11.9375 36 C15.9497813 39.89069702 20.94128695 39.12346579 26.25 39.0625 C26.99507812 39.05798828 27.74015625 39.05347656 28.5078125 39.04882812 C30.3385764 39.03709246 32.16929873 39.0191585 34 39 C34 38.67 34 38.34 34 38 C35.0725 37.7525 36.145 37.505 37.25 37.25 C40.99649437 36.00116854 42.52073882 34.97511342 45 32 C45.99 32.495 45.99 32.495 47 33 C40.26814487 39.50044761 34.86503139 42.11582388 25.4375 42.375 C16.71126366 42.13372158 10.33376148 38.88134995 4 33 C-1.6607508 26.22425283 -3.3798883 18.94012564 -2.75 10.25 C-2.37720367 6.50010755 -1.51477755 3.45170622 0 0 Z " fill="#482A9A" transform="translate(97,117)"/>
<path d="M0 0 C0.33 0 0.66 0 1 0 C1.33 21.45 1.66 42.9 2 65 C3.32 65.33 4.64 65.66 6 66 C5.814375 66.886875 5.62875 67.77375 5.4375 68.6875 C5.01957516 71.85178811 5.19222258 73.94839642 6 77 C5.01 77 4.02 77 3 77 C2.505 74.525 2.505 74.525 2 72 C1.34 72 0.68 72 0 72 C0 48.24 0 24.48 0 0 Z " fill="#4926A6" transform="translate(2,128)"/>
<path d="M0 0 C0.33 0 0.66 0 1 0 C1.3125 2.75 1.3125 2.75 1 6 C-1.4375 8.1875 -1.4375 8.1875 -4 10 C-4.33 10.99 -4.66 11.98 -5 13 C-4.34 13 -3.68 13 -3 13 C-3 13.99 -3 14.98 -3 16 C-3.66 15.67 -4.32 15.34 -5 15 C-5.33 15.33 -5.66 15.66 -6 16 C-7.32594105 16.36162029 -8.65938457 16.69728039 -10 17 C-10 17.66 -10 18.32 -10 19 C-12.90600261 20.25664978 -14.79604584 21 -18 21 C-17.67 22.65 -17.34 24.3 -17 26 C-17.99 26.33 -18.98 26.66 -20 27 C-20.66 26.67 -21.32 26.34 -22 26 C-22.33 26.66 -22.66 27.32 -23 28 C-24.5 26.625 -24.5 26.625 -26 25 C-26 24.34 -26 23.68 -26 23 C-25.21496094 22.63648438 -24.42992187 22.27296875 -23.62109375 21.8984375 C-12.59731078 16.62325301 -5.54496196 11.08992392 0 0 Z " fill="#4928A2" transform="translate(161,148)"/>
<path d="M0 0 C4.58317846 4.04556222 7.54823793 10.47405211 8.3203125 16.5 C8.3125 18.6875 8.3125 18.6875 8 22 C7.01 22.33 6.02 22.66 5 23 C4.34 22.67 3.68 22.34 3 22 C2.67 22.66 2.34 23.32 2 24 C1.3445803 19.55322941 0.90170009 15.66625495 1.5625 11.1875 C2.03561089 7.74054921 1.69118487 6.88496242 0 4 C0 2.68 0 1.36 0 0 Z " fill="#6032D9" transform="translate(231,32)"/>
<path d="M0 0 C2.97 0 5.94 0 9 0 C10 4.875 10 4.875 10 6 C10.66 6.33 11.32 6.66 12 7 C12.625 9.0625 12.625 9.0625 13 11 C12.01 11 11.02 11 10 11 C10 10.34 10 9.68 10 9 C8.68 8.67 7.36 8.34 6 8 C6 7.34 6 6.68 6 6 C4.35 5.67 2.7 5.34 1 5 C0.67 3.35 0.34 1.7 0 0 Z " fill="#5A2CD2" transform="translate(140,86)"/>
<path d="M0 0 C1.32 0.66 2.64 1.32 4 2 C4.33 1.34 4.66 0.68 5 0 C5.33 1.65 5.66 3.3 6 5 C5.24074219 5.10957031 4.48148438 5.21914063 3.69921875 5.33203125 C2.70535156 5.49058594 1.71148437 5.64914063 0.6875 5.8125 C-0.29863281 5.96332031 -1.28476563 6.11414062 -2.30078125 6.26953125 C-5.12699269 7.03436705 -6.1959128 7.75258762 -8 10 C-8 8.68 -8 7.36 -8 6 C-8.66 5.67 -9.32 5.34 -10 5 C-9.67 3.68 -9.34 2.36 -9 1 C-6.03 1.33 -3.06 1.66 0 2 C0 1.34 0 0.68 0 0 Z " fill="#5F2EDE" transform="translate(122,56)"/>
<path d="M0 0 C0.66 0 1.32 0 2 0 C2.56446822 9.4078036 2.82445856 17.05755651 -3 25 C-3.66 25.33 -4.32 25.66 -5 26 C-4.67 25.29875 -4.34 24.5975 -4 23.875 C-2.90955438 20.73996884 -2.84677357 18.29436818 -3 15 C-2.34 15 -1.68 15 -1 15 C-0.67 10.05 -0.34 5.1 0 0 Z " fill="#4D309F" transform="translate(149,123)"/>
<path d="M0 0 C0.391875 1.051875 0.78375 2.10375 1.1875 3.1875 C2.40695506 6.12819546 3.06872406 7.05727005 5.625 9.1875 C9.32151101 13.56494725 8.90237343 18.43528535 9 24 C7.86838496 21.75285923 6.75852633 19.49793305 5.66796875 17.23046875 C2.84093033 11.41974863 -0.04707932 6.11554441 -4 1 C-2 0 -2 0 0 0 Z " fill="#4F2EAE" transform="translate(156,98)"/>
<path d="M0 0 C0.8353125 0.680625 0.8353125 0.680625 1.6875 1.375 C3.92980734 3.08306773 3.92980734 3.08306773 6.5 4 C9.05026035 5.02010414 10.88037348 6.27289691 13 8 C12.34 9.32 11.68 10.64 11 12 C10.01 12 9.02 12 8 12 C8.33 10.35 8.66 8.7 9 7 C5.98968256 6.06576355 5.13349732 5.95550089 2 7 C1.34 5.68 0.68 4.36 0 3 C-0.33 3.66 -0.66 4.32 -1 5 C-1.33 4.01 -1.66 3.02 -2 2 C-1.34 1.34 -0.68 0.68 0 0 Z " fill="#4B26B4" transform="translate(90,160)"/>
<path d="M0 0 C0.66 0.33 1.32 0.66 2 1 C1.50628906 1.36351563 1.01257813 1.72703125 0.50390625 2.1015625 C-3.81673066 5.44095826 -3.81673066 5.44095826 -5.9375 10.375 C-5.958125 11.24125 -5.97875 12.1075 -6 13 C-6.556875 13.103125 -7.11375 13.20625 -7.6875 13.3125 C-10.44176578 14.13133577 -12.58727657 15.45853781 -15 17 C-11.80573668 9.96948907 -6.00185406 4.6843739 0 0 Z " fill="#633BD3" transform="translate(26,15)"/>
<path d="M0 0 C0.33 0 0.66 0 1 0 C1 8.91 1 17.82 1 27 C0.34 27 -0.32 27 -1 27 C-1.33 28.98 -1.66 30.96 -2 33 C-3.32 33 -4.64 33 -6 33 C-5 30 -5 30 -2.97558594 27.68481445 C-0.65401198 24.52980348 -0.47002113 22.91353002 -0.390625 19.04296875 C-0.35839844 17.93115234 -0.32617188 16.81933594 -0.29296875 15.67382812 C-0.27169922 13.9480957 -0.27169922 13.9480957 -0.25 12.1875 C-0.22035156 11.01767578 -0.19070312 9.84785156 -0.16015625 8.64257812 C-0.08960291 5.76164991 -0.03683271 2.88152422 0 0 Z " fill="#46259E" transform="translate(239,173)"/>
<path d="M0 0 C7.71871931 0.3216133 11.92789368 4.23510431 17.5 9.25 C19 11 19 11 19 13 C18.34 13 17.68 13 17 13 C17 12.34 17 11.68 17 11 C16.236875 10.731875 15.47375 10.46375 14.6875 10.1875 C12.11011382 9.04865495 10.73045136 8.18583329 9 6 C9 5.34 9 4.68 9 4 C6.03 3.01 3.06 2.02 0 1 C0 0.67 0 0.34 0 0 Z " fill="#5031A7" transform="translate(128,103)"/>
<path d="M0 0 C3.71599191 -0.20086443 4.77208445 -0.1519437 8 2 C8 2.66 8 3.32 8 4 C8.99 4.33 9.98 4.66 11 5 C11 5.66 11 6.32 11 7 C10.05125 6.814375 9.1025 6.62875 8.125 6.4375 C5.10131207 5.71313368 5.10131207 5.71313368 3 7 C0 3.375 0 3.375 0 0 Z " fill="#582ACF" transform="translate(129,105)"/>
<path d="M0 0 C0.57234375 0.23589844 1.1446875 0.47179688 1.734375 0.71484375 C0.744375 3.02484375 -0.245625 5.33484375 -1.265625 7.71484375 C-2.585625 7.71484375 -3.905625 7.71484375 -5.265625 7.71484375 C-5.265625 7.05484375 -5.265625 6.39484375 -5.265625 5.71484375 C-5.925625 5.71484375 -6.585625 5.71484375 -7.265625 5.71484375 C-7.265625 6.37484375 -7.265625 7.03484375 -7.265625 7.71484375 C-8.255625 7.38484375 -9.245625 7.05484375 -10.265625 6.71484375 C-9.03009224 5.51229851 -7.77660161 4.32818143 -6.515625 3.15234375 C-5.81953125 2.49105469 -5.1234375 1.82976563 -4.40625 1.1484375 C-2.265625 -0.28515625 -2.265625 -0.28515625 0 0 Z " fill="#6632EB" transform="translate(30.265625,15.28515625)"/>
<path d="M0 0 C-2.4139542 2.9933032 -3.67238143 3.92979602 -7.5 4.75 C-9.99503172 4.92821655 -12.4986115 5 -15 5 C-14.67 4.01 -14.34 3.02 -14 2 C-12.02 2.495 -12.02 2.495 -10 3 C-10 2.34 -10 1.68 -10 1 C-6.78548731 -0.60725635 -3.56387464 -0.05748185 0 0 Z " fill="#411F99" transform="translate(216,232)"/>
<path d="M0 0 C3.79379058 1.49041773 5.68343758 3.69062512 8 7 C8 7.66 8 8.32 8 9 C4 9 4 9 2.3125 7.875 C0.54296947 5.34709924 0.33663414 3.02970725 0 0 Z " fill="#6138D9" transform="translate(223,23)"/>
<path d="M0 0 C0.99 1.32 1.98 2.64 3 4 C2.01 5.98 1.02 7.96 0 10 C-0.99 9.34 -1.98 8.68 -3 8 C-1.125 1.125 -1.125 1.125 0 0 Z " fill="#6430E9" transform="translate(13,30)"/>
<path d="M0 0 C1.98 0 3.96 0 6 0 C5.67 1.65 5.34 3.3 5 5 C4.34 5 3.68 5 3 5 C2.67 5.66 2.34 6.32 2 7 C1.67 6.01 1.34 5.02 1 4 C0.34 4 -0.32 4 -1 4 C-0.67 2.68 -0.34 1.36 0 0 Z " fill="#471FA6" transform="translate(10,208)"/>
<path d="M0 0 C1.4540625 0.0309375 1.4540625 0.0309375 2.9375 0.0625 C2.9375 1.3825 2.9375 2.7025 2.9375 4.0625 C1.2875 4.3925 -0.3625 4.7225 -2.0625 5.0625 C-2.0625 4.0725 -2.0625 3.0825 -2.0625 2.0625 C-2.7225 1.7325 -3.3825 1.4025 -4.0625 1.0625 C-3.0625 0.0625 -3.0625 0.0625 0 0 Z " fill="#4D24B1" transform="translate(156.0625,164.9375)"/>
<path d="M0 0 C0.95465783 2.16967689 1.14401212 3.56328793 0.3984375 5.82421875 C-0.35870385 7.5684743 -1.17609198 9.28627131 -2 11 C-2.99 11 -3.98 11 -5 11 C-3.77472971 6.94718288 -2.30119506 3.55639236 0 0 Z " fill="#613BCC" transform="translate(10,32)"/>
<path d="M0 0 C0.66 0.33 1.32 0.66 2 1 C0.89718873 2.27200971 -0.20730769 3.54255853 -1.3125 4.8125 C-2.23482422 5.87404297 -2.23482422 5.87404297 -3.17578125 6.95703125 C-4.73334335 8.70136739 -6.32658875 10.36778041 -8 12 C-5.864 3.7164878 -5.864 3.7164878 -2.4375 0.875 C-1.633125 0.58625 -0.82875 0.2975 0 0 Z " fill="#4E2DAA" transform="translate(93,98)"/>
<path d="M0 0 C5.75 1.75 5.75 1.75 8 4 C5.21176345 5.0326802 4.1322726 5.04509293 1.25 4.0625 C0.5075 3.711875 -0.235 3.36125 -1 3 C-0.67 2.01 -0.34 1.02 0 0 Z " fill="#4A24AF" transform="translate(105,171)"/>
<path d="M0 0 C0.99 1.485 0.99 1.485 2 3 C2.804375 3.8971875 2.804375 3.8971875 3.625 4.8125 C5.41326118 7.65746096 5.22474761 9.70370166 5 13 C1.55834073 8.77614544 0 5.49939416 0 0 Z " fill="#432785" transform="translate(3,200)"/>
<path d="M0 0 C2.97 1.98 2.97 1.98 6 4 C5.34 5.32 4.68 6.64 4 8 C3.01 8 2.02 8 1 8 C1.33 7.01 1.66 6.02 2 5 C1.12085312 2.3430809 1.12085312 2.3430809 0 0 Z " fill="#4A24A5" transform="translate(97,164)"/>
<path d="M0 0 C0.99 0.33 1.98 0.66 3 1 C3.33 2.65 3.66 4.3 4 6 C3.01 6.66 2.02 7.32 1 8 C0.67 5.36 0.34 2.72 0 0 Z " fill="#5A2EDB" transform="translate(130,64)"/>
<path d="M0 0 C0.66 0.66 1.32 1.32 2 2 C1.8125 4.5 1.8125 4.5 1 7 C0.01 7.66 -0.98 8.32 -2 9 C-2 7.35 -2 5.7 -2 4 C-1.34 4 -0.68 4 0 4 C0 2.68 0 1.36 0 0 Z " fill="#4E26BB" transform="translate(164,144)"/>
<path d="M0 0 C2.50037734 2.17424117 3.43628586 3.73045798 4 7 C3.01 7.33 2.02 7.66 1 8 C0.67 5.36 0.34 2.72 0 0 Z " fill="#6039D2" transform="translate(231,32)"/>
</svg>
